<?xml version="1.0" encoding="utf-8"?>
<!-- Generator: Adobe Illustrator 24.1.2, SVG Export Plug-In . SVG Version: 6.00 Build 0)  -->
<svg version="1.1" id="Layer_1" xmlns="http://www.w3.org/2000/svg" xmlns:xlink="http://www.w3.org/1999/xlink" x="0px" y="0px"
	 viewBox="0 0 213.06 55.63" style="enable-background:new 0 0 213.06 55.63;" xml:space="preserve">
<style type="text/css">
	.st0{opacity:0.9;}
	.st1{font-family:'MyriadPro-Regular';}
	.st2{font-size:38.2753px;}
</style>
<text transform="matrix(1 0 0 1 61.9538 39.1805)" class="st0 st1 st2">PuzzleArt</text>
<g class="st0">
	<path d="M27.55,3.11c0.01,0,0.02,0,0.03,0c1.28,0.01,2.5,0.6,3.42,1.49c2.37,2.31,2.36,4.06,1.94,5.65h9.94
		c1.03,0,1.86,0.84,1.86,1.88v6.92c-4.5,0.5-8.01,4.27-8.01,8.9c0,4.63,3.51,8.4,8.01,8.9v6.68c0,1.04-0.83,1.88-1.86,1.88H33.2
		c0.17,0.55,0.29,1.12,0.29,1.72c0,3.06-2.41,5.56-5.41,5.66c-0.05,0-0.11,0-0.16,0c-1.83,0-3.47-1.08-4.55-2.59
		c-1.32-1.85-1.23-3.4-0.79-4.79h-9.67c-1.03,0-1.86-0.84-1.86-1.88V33.07c-0.65,0.26-1.35,0.42-2.09,0.42
		c-3.61,0-6.42-3.45-5.38-7.26c0.45-1.66,1.71-3.03,3.3-3.66c0.72-0.28,1.42-0.41,2.09-0.41c0.74,0,1.45,0.15,2.09,0.42V12.13
		c0-1.04,0.83-1.88,1.86-1.88h9.25c-0.13-0.47-0.22-0.96-0.22-1.48C21.95,5.64,24.46,3.11,27.55,3.11 M27.55,1.11
		c-2.03,0-3.94,0.8-5.38,2.25c-1.31,1.32-2.08,3.04-2.2,4.89h-7.06c-2.13,0-3.86,1.74-3.86,3.88v8.04c-0.03,0-0.07,0-0.1,0
		c-0.95,0-1.89,0.18-2.81,0.54c-2.2,0.86-3.88,2.73-4.5,4.99C1,28.1,1.47,30.57,2.94,32.5c1.45,1.9,3.65,2.99,6.02,2.99
		c0.03,0,0.07,0,0.1,0v8.04c0,2.14,1.73,3.88,3.86,3.88h7.39c0.06,1.37,0.54,2.68,1.45,3.96c1.55,2.18,3.8,3.43,6.17,3.43
		c0.08,0,0.15,0,0.23,0c4.02-0.14,7.2-3.35,7.33-7.38h7.39c2.13,0,3.86-1.74,3.86-3.88v-6.68v-1.79l-1.78-0.2
		c-3.55-0.39-6.23-3.37-6.23-6.91c0-3.55,2.68-6.52,6.23-6.91l1.78-0.2v-1.79v-6.92c0-2.14-1.73-3.88-3.86-3.88h-7.74
		c-0.12-1.48-0.8-3.19-2.75-5.08c-1.34-1.3-3.09-2.05-4.8-2.06l0,0L27.55,1.11L27.55,1.11z"/>
</g>
</svg>
